<?xml version="1.0" encoding="UTF-8"?>
<svg version="1.1" xmlns="http://www.w3.org/2000/svg" width="1000" height="667">
  <path d="M0 0 C1.24769502 5.65765158 ..." fill="#654321" />

  <path
    d="M0 0 C1.24769502 5.65765158 0.71464047 8.54998746 -1.875 13.6875 C-5.16857258 20.67224254 -7.66777967 28.26376632 -5 35.83984375 C-4.505 36.90912109 -4.505 36.90912109 -4 38 C1.12398023 37.89097914 3.55231924 36.81117649 7.5 33.5 C11.44768076 30.18882351 13.87601977 29.10902086 19 29 C19.75 30.625 19.75 30.625 20 33 C18.1875 36.25 18.1875 36.25 16 39 C15.34 39 14.68 39 14 39 C13.34 40.32 12.68 41.64 12 43 C11.34 43 10.68 43 10 43 C9.67 43.99 9.34 44.98 9 46 C7.4765625 47.32421875 7.4765625 47.32421875 5.625 48.6875 C1.10349879 52.45696508 -0.3941689 56.22112853 -1.3125 61.94921875 C-2.21271087 76.71830338 5.0686403 92.79881042 13.77734375 104.359375 C15 106 15 106 15 108 C15.66 108 16.32 108 17 108 C17.33 108.66 17.66 109.32 18 110 C20.35351743 109.04878671 21.72902884 108.41962895 23.125 106.2578125 C23.41375 105.55398437 23.7025 104.85015625 24 104.125 C24.495 102.93777344 24.495 102.93777344 25 101.7265625 C26.48449894 97.67898335 27.701914 93.55394691 28.875 89.40625 C30 87 30 87 32.125 86.15625 C33.053125 86.07890625 33.053125 86.07890625 34 86 C38.3282073 93.83708318 37.0253902 101.41632369 34.69140625 109.7265625 C34.46324219 110.47679687 34.23507812 111.22703125 34 112 C57.92121748 102.66165557 57.92121748 102.66165557 77 87 C78.56389896 80.02260462 77.51383222 74.01633839 76.1184082 67.11669922 C74.06337392 56.87325216 74.06337392 56.87325216 76 53 C79.77605055 53.86309727 81.0285629 55.0366191 83.4375 58.125 C86.29251137 62.99478205 88.10561312 68.31003454 89.94506836 73.62744141 C91.05422616 77.5371395 91.05422616 77.5371395 94 80 C105.00532016 75.2674891 118.14746662 64.53120621 124 54 C127.88184599 44.20580397 129.07509132 34.5588688 129.5 24.125 C129.70678306 19.0932788 129.94345606 14.07031835 130.40625 9.0546875 C130.50389648 7.99096924 130.50389648 7.99096924 130.60351562 6.90576172 C131 5 131 5 133 2 C134.32 2 135.64 2 137 2 C137.65628849 3.20268681 138.29947505 4.41252554 138.9375 5.625 C139.47697266 6.63433594 139.47697266 6.63433594 140.02734375 7.6640625 C144.42614426 18.22825006 142.2842489 31.29329929 140.06738281 42.1887207 C139.25695359 46.19803533 138.84684922 49.9095978 139 54 C148.76728961 53.959218 154.45655815 50.46311103 161.3828125 43.84765625 C165.88114153 39.2908604 169.2441787 34.04785636 172.72460938 28.70117188 C173.22154297 27.96576172 173.71847656 27.23035156 174.23046875 26.47265625 C174.66770264 25.80500244 175.10493652 25.13734863 175.55541992 24.44946289 C176.03213135 23.97114014 176.50884277 23.49281738 177 23 C178.32 23 179.64 23 181 23 C182.80714453 26.61428906 181.91816472 30.22822107 181 34 C173.51552458 53.13441781 159.84412916 63.6445358 141.625 72.0625 C139.11485176 73.2359459 136.60756489 74.41538468 134.1015625 75.59765625 C133.4961261 75.88291168 132.8906897 76.16816711 132.26690674 76.46206665 C122.67112755 80.93024449 122.67112755 80.93024449 113.82275391 86.67211914 C112 88 112 88 110 88 C109.94832473 90.42267086 109.94832473 90.42267086 111 93 C117.65218626 97.0190292 124.33383335 96.8293987 131.75 95.0625 C136.98841068 93.37931162 141.16528726 90.39691779 145.53417969 87.13696289 C148.29828528 85.08349333 150.54344559 83.48425158 154 83 C155.078125 84.765625 155.078125 84.765625 156 87 C153.13851593 95.58445222 146.89307377 100.30313533 139.13671875 104.578125 C126.20891378 110.53690133 113.66822258 109.71625772 100.3984375 105.09375 C99.00659897 104.57719137 97.62326331 104.0358697 96.2578125 103.453125 C89.18020567 102.03270564 82.94498928 105.00835216 76.6875 107.9375 C75.89021484 108.29779297 75.09292969 108.65808594 74.27148438 109.02929688 C70.9872272 110.5291721 68.01418456 111.99054362 65 114 C68.21119682 113.41045489 71.41825313 112.80075131 74.625 112.1875 C75.52863281 112.02185547 76.43226563 111.85621094 77.36328125 111.68554688 C82.39050413 110.71312785 86.4610905 109.46558047 91 107 C93.875 106.8125 93.875 106.8125 96 107 C96.6344267 116.83361378 94.27753334 123.69161109 87.875 131.25 C78.36387704 141.13349971 67.35959582 144.48186411 54 146 C54.29132813 146.57621094 54.58265625 147.15242187 54.8828125 147.74609375 C58.29151191 155.13160914 60.19109867 162.5277156 62 170.4375 C65.70409591 186.45023033 69.75983489 201.13654488 84 211 C90.4521343 214.28266482 96.45159721 215.04833113 103.56982422 215.28955078 C117.50454262 215.77951978 129.68968089 218.83036938 142.81738281 223.36816406 C149.02134112 225.46442777 155.20170144 227.10294459 161.625 228.375 C162.40504395 228.53025146 163.18508789 228.68550293 163.98876953 228.84545898 C195.59365741 234.72567215 228.75199472 229.81174485 260.35128784 226.15467834 C267.23472773 225.36251032 274.06203887 224.6341252 281 224.6875 C282.23399536 224.69595947 282.23399536 224.69595947 283.49291992 224.70458984 C296.61728786 224.9584072 308.26274248 227.30640208 320.27734375 232.5234375 C324.15526164 234.1472318 328.09764613 235.12570698 332.1875 236.0625 C344.6409562 238.98301407 355.43871962 242.9015931 362.8125 253.875 C365.21532228 258.04151001 366.71927686 262.37864936 368 267 C368.226875 267.804375 368.45375 268.60875 368.6875 269.4375 C369.66474671 277.45092305 369.82533605 286.54466238 365.375 293.5625 C364.694375 294.2740625 364.694375 294.2740625 364 295 C361.46690121 294.62890909 360.29892362 294.35481302 358.62109375 292.36328125 C358.23050781 291.68652344 357.83992188 291.00976562 357.4375 290.3125 C357.01984375 289.59707031 356.6021875 288.88164062 356.171875 288.14453125 C354.70680545 285.46345397 353.31090734 282.75980492 352 280 C352.061875 281.19625 352.12375 282.3925 352.1875 283.625 C352.14235802 295.87273101 347.66294094 307.43516207 343.4375 318.75 C335.82132227 337.38383727 335.82132227 337.38383727 337.76953125 356.703125 C344.33929622 368.96668629 354.69232046 378.42258737 365.51953125 386.859375 C370.38161996 391.05531927 373.62952356 395.3389506 374.28759766 401.84204102 C374.29153004 410.1623176 373.11999562 417.81882488 371.375 425.9375 C370.81782478 428.65030674 370.27455413 431.36579381 369.734375 434.08203125 C369.52241989 435.14445038 369.52241989 435.14445038 369.30618286 436.22833252 C367.70722117 444.33501086 366.33635744 452.47748046 365.02618408 460.63528442 C364.76220423 462.27352176 364.49436405 463.9111425 364.22235107 465.54806519 C361.21231831 482.88626811 361.21231831 482.88626811 364 500 C364 501.32 364 502.64 364 504 C362.02 504 360.04 504 358 504 C357.78085937 504.66386719 357.56171875 505.32773437 357.3359375 506.01171875 C355.17436037 512.03074449 353.37151923 515.45708306 348 519 C344.32806862 520.22397713 340.88916441 520.26111238 337.0625 520.3125 C336.34642578 520.34150391 335.63035156 520.37050781 334.89257812 520.40039062 C331.23044229 520.44451274 329.3908508 520.3152416 326.49609375 517.98046875 C326.00238281 517.32691406 325.50867188 516.67335938 325 516 C326.59932412 509.52273733 330.42692063 505.50394879 334.65625 500.56640625 C335.1821875 499.93605469 335.708125 499.30570313 336.25 498.65625 C336.96929688 497.81803711 336.96929688 497.81803711 337.703125 496.96289062 C340.97752809 492.00690402 341.62301893 486.07764206 342.5078125 480.32421875 C342.70394386 479.07225456 342.70394386 479.07225456 342.90403748 477.79499817 C343.32101938 475.09389958 343.72546814 472.39123291 344.125 469.6875 C344.26106659 468.76904297 344.39713318 467.85058594 344.537323 466.90429688 C346.16162791 455.77037422 347.56777792 444.77100275 347.5625 433.5 C347.56459473 432.54311279 347.56668945 431.58622559 347.56884766 430.6003418 C347.37100978 422.39304496 345.73606044 415.13165081 340 409 C340.226875 410.2375 340.45375 411.475 340.6875 412.75 C341.75543797 422.44831199 337.4054886 432.26290221 334 441.1875 C333.61553711 442.20706787 333.23107422 443.22663574 332.83496094 444.27709961 C329.46821944 453.06617277 325.68067511 461.64545953 321.82861328 470.23022461 C312.50890131 490.70558798 312.50890131 490.70558798 313 512.625 C313.33 513.40875 313.66 514.1925 314 515 C308.25 515.125 308.25 515.125 306 514 C306.268125 515.0725 306.53625 516.145 306.8125 517.25 C306.9053125 519.10625 306.9053125 519.10625 307 521 C301.95420577 526.50450279 295.11440457 528.73521159 287.84375 529.203125 C286.7403125 529.21859375 285.636875 529.2340625 284.5 529.25 C283.3965625 529.27578125 282.293125 529.3015625 281.15625 529.328125 C277.62746343 528.96127095 275.78993582 528.16321111 273 526 C272.67 525.01 272.34 524.02 272 523 C274.00313586 519.32758427 276.30066495 516.63265928 279.3125 513.75 C285.85200283 507.29415819 290.07724157 500.41830185 293.3515625 491.8828125 C293.65313263 491.10090042 293.95470276 490.31898834 294.26541138 489.51338196 C297.64734669 480.55401435 300.28145227 471.39928376 302.875 462.1875 C303.3638509 460.48090982 303.85343212 458.77452866 304.34375 457.06835938 C304.81054896 455.43508236 305.27671952 453.80162558 305.7421875 452.16796875 C305.95567841 451.41903854 306.16916931 450.67010834 306.38912964 449.89848328 C311.73580111 430.89132103 308.02261899 416.25033775 298.609375 399.37109375 C291.88793017 387.81380026 283.23092867 377.89891558 274.046875 368.2578125 C270.51813708 364.53303358 267.29619273 360.61013442 264.09765625 356.59765625 C261.46623541 353.33900661 258.73870838 350.1685787 256 347 C255.11554199 347.2266333 254.23108398 347.4532666 253.31982422 347.68676758 C235.9655961 352.10128171 218.85857876 356.22054018 201 358 C199.82179688 358.14050781 198.64359375 358.28101563 197.4296875 358.42578125 C178.15178117 360.35357188 158.20525461 357.87868574 139 356 C133.95337169 376.65180523 132.52418675 397.3643695 132.15771484 418.56762695 C132.03009366 421.34506686 131.77062126 424.02070178 131.44482422 426.77734375 C130.90592124 431.96977478 131.17222959 436.88974785 131.671875 442.07421875 C131.75495911 443.00112015 131.83804321 443.92802155 131.92364502 444.88301086 C132.10073893 446.83218073 132.28250316 448.78093146 132.46875 450.72924805 C132.74753365 453.66155832 133.00767268 456.59508919 133.265625 459.52929688 C134.47994053 477.79674502 134.47994053 477.79674502 140 495 C139.625 497.25 139.625 497.25 139 499 C137.35 499 135.7 499 134 499 C134.04640625 499.60328125 134.0928125 500.2065625 134.140625 500.828125 C134.43504532 507.34743202 134.43504532 507.34743202 132.375 510.4375 C127.49639674 513.64710741 122.75950147 514.29355427 117 514.3125 C115.824375 514.32925781 114.64875 514.34601562 113.4375 514.36328125 C109.68397515 513.96660192 107.24670108 512.87576175 104 511 C103.54127677 507.44161839 103.93150412 506.10725384 105.8984375 503.02734375 C107.12433594 501.49787109 107.12433594 501.49787109 108.375 499.9375 C113.2976388 493.74122608 115.25180788 490.72556674 115.265625 482.69140625 C115.26849014 481.97716995 115.27135529 481.26293365 115.27430725 480.52705383 C115.27868837 478.20532787 115.26611153 475.8841692 115.25 473.5625 C115.24656586 472.76934387 115.24313171 471.97618774 115.23959351 471.15899658 C115.13573642 450.77053663 112.8956149 431.70032133 108.54077148 411.75634766 C107.41852215 406.03616931 106.82672649 400.3494056 106.46484375 394.53515625 C106.42186661 393.85698349 106.37888947 393.17881073 106.33460999 392.48008728 C106.19964561 390.34104473 106.06850637 388.20178823 105.9375 386.0625 C105.84595732 384.60089552 105.75416277 383.13930678 105.66210938 381.67773438 C105.43849697 378.11866684 105.21831138 374.55939709 105 371 C103.91299075 376.38481119 102.82874494 381.77016958 101.74682617 387.15600586 C101.38003327 388.98004404 101.01254451 390.80394247 100.64428711 392.62768555 C98.63998726 402.55621593 96.67190288 412.48306334 94.9908905 422.47227478 C94.30948049 426.47253903 93.44752752 430.38306878 92.4375 434.3125 C87.87027652 455.22557592 84.56598876 484.4237189 92 505 C89.69 505 87.38 505 85 505 C84.87044922 506.01320313 84.87044922 506.01320313 84.73828125 507.046875 C83.59599332 514.29883139 83.59599332 514.29883139 80.875 517.5 C74.56532331 520.79200523 67.60185396 522.22716106 60.59765625 520.359375 C54.34396853 518.34396853 54.34396853 518.34396853 53 517 C52.37313658 513.2865156 53.04644018 511.92422452 55.046875 508.66015625 C55.93604188 507.4521066 56.83754068 506.25305436 57.75 505.0625 C59.0822459 503.27519917 60.41194309 501.48604226 61.74023438 499.69580078 C62.89066166 498.14718297 64.04660701 496.6026683 65.203125 495.05859375 C68.83151259 488.88244705 69.40889658 481.78975402 70.10546875 474.77734375 C70.19379471 473.91420059 70.28212067 473.05105743 70.37312317 472.16175842 C70.55684784 470.34261244 70.73735486 468.52313888 70.91479492 466.70336914 C71.18449005 463.96802793 71.47356232 461.23519434 71.76367188 458.50195312 C72.90460335 447.26699869 73.54457393 436.36328838 71.47937012 425.1809845 C71.00616727 422.04092454 70.90561496 419.1452541 70.94995117 415.97314453 C70.96943062 414.21939011 70.96943062 414.21939011 70.98930359 412.4302063 C71.00701309 411.17706635 71.0247226 409.92392639 71.04296875 408.6328125 C71.05963593 406.63378235 71.07627673 404.63475163 71.09147358 402.63570976 C71.1293017 397.73674772 71.17532953 392.8380475 71.24682617 387.93945312 C72.10873824 356.37199121 72.10873824 356.37199121 57.59375 329.3125 C54.99693237 326.70013256 52.34914667 324.14392533 49.69140625 321.59375 C17.34946397 290.48785765 7.43997418 242.65950025 5.2109375 199.51171875 C5.08873842 196.87333817 5.08873842 196.87333817 4 194 C2.73285156 193.95101562 1.46570313 193.90203125 0.16015625 193.8515625 C-1.53908096 193.77645809 -3.23829876 193.70091368 -4.9375 193.625 C-5.76830078 193.5940625 -6.59910156 193.563125 -7.45507812 193.53125 C-12.46729691 193.29721644 -17.07878487 192.61248679 -21.95239258 191.43652344 C-24.78333705 190.83300267 -27.48640821 190.77165873 -30.375 190.8125 C-32.02628906 190.83183594 -32.02628906 190.83183594 -33.7109375 190.8515625 C-36.83857327 190.99271471 -39.89326274 191.31067203 -43 191.6875 C-46.52390662 192.05789602 -47.82192551 192.07332479 -51.1875 190.6875 C-51.785625 190.130625 -52.38375 189.57375 -53 189 C-53 188.34 -53 187.68 -53 187 C-54.27875 186.690625 -55.5575 186.38125 -56.875 186.0625 C-59.5542703 185.06842445 -60.70236957 184.60716608 -61.9765625 182.0078125 C-62.50605628 179.6606535 -62.80199785 177.396651 -63 175 C-63.165 173.96875 -63.33 172.9375 -63.5 171.875 C-62.73848189 167.49627086 -60.20344307 164.98497007 -57 162 C-54.06226283 160.09645575 -50.97494538 158.61719271 -47.8125 157.125 C-39.91306856 153.17829703 -33.50641934 149.02559904 -27 143 C-15.51550243 132.37840867 -15.51550243 132.37840867 -9 129 C-7.36009653 128.02463258 -5.73557537 127.02306989 -4.125 126 C-3.36445313 125.525625 -2.60390625 125.05125 -1.8203125 124.5625 C0.27448161 122.76439347 0.64022731 121.69249239 1 119 C-4.14977289 115.99596581 -9.07726297 114.42021756 -14.875 113.125 C-24.16021719 110.99067699 -31.62599655 107.31135689 -38 100 C-38.70125 99.21625 -39.4025 98.4325 -40.125 97.625 C-44.71779933 91.19508094 -45.74161902 85.80126161 -45 78 C-44.67 77.34 -44.34 76.68 -44 76 C-42.68 76 -41.36 76 -40 76 C-39.41992188 77.09699219 -38.83984375 78.19398438 -38.2421875 79.32421875 C-37.45378725 80.77900493 -36.66468741 82.23341212 -35.875 83.6875 C-35.49601562 84.40873047 -35.11703125 85.12996094 -34.7265625 85.87304688 C-31.76998442 91.26880186 -28.63368522 95.18315739 -23 98 C-23 94.7 -23 91.4 -23 88 C-20.525 87.505 -20.525 87.505 -18 87 C-17.40832031 87.98742187 -16.81664062 88.97484375 -16.20703125 89.9921875 C-15.40956544 91.2868967 -14.61134871 92.5811436 -13.8125 93.875 C-13.23145508 94.85146484 -13.23145508 94.85146484 -12.63867188 95.84765625 C-10.23834406 99.69611573 -8.61675695 101.83556041 -4 103 C-9.10450727 91.22482981 -14.78382927 85.75235632 -25.68359375 79.37890625 C-34.8237007 73.93799941 -40.92117145 64.96488617 -43.56640625 54.6796875 C-44.78053032 47.17618196 -45.44200018 39.47791693 -41 33 C-39.68 33.33 -38.36 33.66 -37 34 C-36.75765625 35.0621875 -36.5153125 36.124375 -36.265625 37.21875 C-34.52306886 44.6388645 -32.79626623 51.32380767 -29 58 C-28.67 58.99 -28.34 59.98 -28 61 C-27.34 61 -26.68 61 -26 61 C-25.236875 61.804375 -24.47375 62.60875 -23.6875 63.4375 C-20.92345437 66.07298537 -19.71162552 66.68186067 -16 67 C-13.77020418 60.31061253 -15.30840864 53.56100152 -16.5625 46.8125 C-19.0985515 31.91572769 -17.5291382 19.21304228 -9.59765625 6.2265625 C-5.12982456 0 -5.12982456 0 0 0 Z M53.9375 117.6875 C52.85339844 118.18636719 51.76929688 118.68523437 50.65234375 119.19921875 C47.77155194 120.75759572 47.77155194 120.75759572 47.12890625 123.70703125 C47.08636719 124.46371094 47.04382813 125.22039062 47 126 C51.04335927 125.87747396 52.88838021 124.38486072 55.625 121.625 C56.756036 120.42231466 57.88128295 119.21415263 59 118 C59.99544426 116.99546492 60.99392114 115.99388396 62 115 C58.93181723 115 56.69329178 116.38350794 53.9375 117.6875 Z "
    fill="rgba(45,11,19,0.833)" transform="translate(335,68)" />
</svg>
