<svg xmlns="http://www.w3.org/2000/svg" viewBox="0 0 458 332">
  <defs>
    <filter id="glow" x="-50%" y="-50%" width="200%" height="200%">
      <feGaussianBlur stdDeviation="4" result="coloredBlur" />
      <feMerge>
        <feMergeNode in="coloredBlur" />
        <feMergeNode in="SourceGraphic" />
      </feMerge>
    </filter>

    <!-- Original aurora gradients -->
    <linearGradient id="auroraGradient1" x1="0%" y1="0%" x2="100%" y2="100%">
      <stop offset="0%" stop-color="#0a5a42">
        <animate attributeName="stop-color" values="#80FFD9; #7CB5FF; #9D80FF; #80FFD9" dur="8s"
          repeatCount="indefinite" />
      </stop>
      <stop offset="100%" stop-color="#9D80FF">
        <animate attributeName="stop-color" values="#9D80FF; #80FFD9; #7CB5FF; #9D80FF" dur="8s"
          repeatCount="indefinite" />
      </stop>
    </linearGradient>

    <linearGradient id="auroraGradient2" x1="0%" y1="0%" x2="100%" y2="100%">
      <stop offset="0%" stop-color="#FF80E5">
        <animate attributeName="stop-color" values="#FF80E5; #80FFD9; #7CB5FF; #FF80E5" dur="6s"
          repeatCount="indefinite" />
      </stop>
      <stop offset="100%" stop-color="#7CB5FF">
        <animate attributeName="stop-color" values="#7CB5FF; #FF80E5; #80FFD9; #7CB5FF" dur="6s"
          repeatCount="indefinite" />
      </stop>
    </linearGradient>
  </defs>

  <!-- Background circle with sharp border -->

  <path
    d="M253.13 329.13C259.151 328.265 265.091 326.907 270.89 325.07C327.09 307.07 367.62 255.84 367.62 195.5C367.62 120.11 304.35 59 226.31 59C148.27 59 85.04 120.11 85.04 195.5C85.04 270.89 148.31 332 226.35 332H226.45C231.808 331.967 237.155 331.539 242.45 330.72L253.13 329.13Z"
    fill="url(#auroraGradient1)" filter="url(#glow)" stroke="#ffffff" stroke-width="2">
    <animate attributeName="d" dur="10s" repeatCount="indefinite"
      values="
        M253.13 329.13C259.151 328.265 265.091 326.907 270.89 325.07C327.09 307.07 367.62 255.84 367.62 195.5C367.62 120.11 304.35 59 226.31 59C148.27 59 85.04 120.11 85.04 195.5C85.04 270.89 148.31 332 226.35 332H226.45C231.808 331.967 237.155 331.539 242.45 330.72L253.13 329.13Z;
        M253.13 329.13C259.151 328.265 265.091 326.907 270.89 325.07C327.09 307.07 377.62 255.84 377.62 195.5C377.62 120.11 304.35 49 226.31 49C148.27 49 75.04 120.11 75.04 195.5C75.04 270.89 148.31 342 226.35 342H226.45C231.808 341.967 237.155 341.539 242.45 340.72L253.13 329.13Z;
        M253.13 329.13C259.151 328.265 265.091 326.907 270.89 325.07C327.09 307.07 367.62 255.84 367.62 195.5C367.62 120.11 304.35 59 226.31 59C148.27 59 85.04 120.11 85.04 195.5C85.04 270.89 148.31 332 226.35 332H226.45C231.808 331.967 237.155 331.539 242.45 330.72L253.13 329.13Z" />
  </path>
  <path
    d="M440.72 153.1L454.23 118.58C454.538 117.794 454.649 116.944 454.553 116.105C454.458 115.266 454.16 114.463 453.684 113.765C453.208 113.068 452.569 112.497 451.822 112.102C451.076 111.707 450.244 111.501 449.4 111.5H350.57C325.95 111.5 308 131.45 308 156.06V248.94C308 273.55 326 291.5 350.57 291.5H449.46C453.1 291.5 455.61 289.85 454.3 286.5L440.69 250.93C440.192 249.639 439.315 248.529 438.175 247.746C437.034 246.962 435.684 246.542 434.3 246.54H346.61C346.005 246.541 345.406 246.423 344.847 246.193C344.287 245.962 343.779 245.624 343.351 245.196C342.923 244.769 342.583 244.261 342.351 243.703C342.119 243.144 342 242.545 342 241.94V161.15C342 160.542 342.121 159.939 342.355 159.378C342.589 158.817 342.933 158.307 343.365 157.88C343.797 157.452 344.31 157.114 344.874 156.886C345.438 156.657 346.042 156.543 346.65 156.55L434.28 157.45C435.668 157.465 437.028 157.057 438.179 156.28C439.33 155.503 440.216 154.394 440.72 153.1Z"
    fill="url(#auroraGradient1)" stroke="#ffffff" stroke-width="2" filter="url(#glow)">
    <animate attributeName="opacity" values="0.8;1;0.8" dur="3s" repeatCount="indefinite" />
  </path>
  <!-- M Logo with sharp border -->
  <path
    d="M123.75 11.38L196.97 165.14C197.233 165.714 197.656 166.201 198.188 166.543C198.719 166.884 199.338 167.065 199.97 167.065C200.602 167.065 201.22 166.884 201.752 166.543C202.284 166.201 202.707 165.714 202.97 165.14L233.04 99.5L264.04 165.14C264.3 165.718 264.722 166.208 265.254 166.552C265.786 166.896 266.406 167.079 267.04 167.079C267.674 167.079 268.294 166.896 268.826 166.552C269.358 166.208 269.78 165.718 270.04 165.14L341.45 11.34C341.84 10.5002 342.012 9.57574 341.95 8.65196C341.888 7.72817 341.594 6.83486 341.096 6.05453C340.598 5.2742 339.911 4.63202 339.099 4.18729C338.287 3.74256 337.376 3.50963 336.45 3.51001H308.52C307.47 3.51321 306.442 3.81477 305.557 4.37956C304.672 4.94434 303.965 5.74908 303.52 6.7L267.04 85.5L234.96 18.5C234.789 18.1422 234.521 17.8402 234.185 17.6287C233.85 17.4172 233.461 17.305 233.065 17.305C232.669 17.305 232.28 17.4172 231.945 17.6287C231.609 17.8402 231.341 18.1422 231.17 18.5L200.04 85.5L163.48 6.69001C163.038 5.73684 162.332 4.93008 161.446 4.36487C160.56 3.79966 159.531 3.49958 158.48 3.5H128.73C127.799 3.49903 126.883 3.73389 126.068 4.18267C125.252 4.63144 124.564 5.2795 124.066 6.06636C123.569 6.85323 123.279 7.75325 123.224 8.68244C123.169 9.61162 123.35 10.5397 123.75 11.38Z"
    fill="url(#auroraGradient2)" filter="url(#glow)" stroke="#ffffff" stroke-width="2" />

  <!-- Side elements with sharp border -->
  <path
    d="M94.04 252.31C91.04 257.85 88.5 263.84 88.5 270.61C88.5024 276.404 90.0301 282.094 92.9294 287.11C95.8287 292.126 99.9974 296.291 105.017 299.185C110.036 302.078 115.728 303.6 121.522 303.596C127.315 303.592 133.006 302.063 138.021 299.163C143.036 296.262 147.2 292.093 150.092 287.073C152.985 282.053 154.505 276.36 154.5 270.567C154.495 264.773 152.964 259.083 150.063 254.068C147.161 249.054 142.99 244.892 137.97 242L138.33 147.1C144.199 143.02 148.585 137.144 150.827 130.356C153.07 123.569 153.048 116.237 150.764 109.463C148.481 102.689 144.06 96.8401 138.166 92.7953C132.272 88.7505 125.224 86.7288 118.083 87.0344C110.941 87.34 104.091 89.9563 98.5646 94.4898C93.0378 99.0232 89.1324 105.229 87.436 112.173C85.7396 119.117 86.3439 126.424 89.1579 132.995C91.9719 139.566 96.8436 145.046 103.04 148.61L103.5 212C94.5409 208.672 85.0573 206.978 75.5 207C58.5 207 52.33 178.1 52.33 178.1C60.9 172.1 68.5 160.23 68.5 149C68.4986 143.206 66.9715 137.514 64.0724 132.497C61.1733 127.48 57.0043 123.315 51.9847 120.42C46.9652 117.526 41.2719 116.004 35.4776 116.008C29.6833 116.012 23.9922 117.542 18.9765 120.443C13.9609 123.344 9.79754 127.515 6.90523 132.536C4.01292 137.557 2.49358 143.25 2.50002 149.045C2.50646 154.839 4.03843 160.53 6.94188 165.544C9.84534 170.558 14.0179 174.72 19.04 177.61C19.04 177.61 14.5 238 83.5 245C83.5 245 96.57 247.61 94.04 252.31Z"
    fill="url(#auroraGradient1)" filter="url(#glow)" stroke="#ffffff" stroke-width="2">
    <animate attributeName="opacity" values="0.7;1;0.7" dur="4s" repeatCount="indefinite" />
  </path>

  <!-- Circles with sharp borders -->
  <circle cx="119.5" cy="269" r="16" fill="#062465" filter="url(#glow)" stroke="#ffffff" stroke-width="2">
    <animate attributeName="r" values="16;17;16" dur="2s" repeatCount="indefinite" />
  </circle>

  <circle cx="119.5" cy="121" r="16" fill="#062465" filter="url(#glow)" stroke="#ffffff" stroke-width="2">
    <animate attributeName="r" values="16;17;16" dur="2s" repeatCount="indefinite" />
  </circle>

  <circle cx="34.5" cy="151" r="16" fill="#062465" filter="url(#glow)" stroke="#ffffff" stroke-width="2">
    <animate attributeName="r" values="16;17;16" dur="2s" repeatCount="indefinite" />
  </circle>

  <!-- Octocat with sharp border -->
  <path
    d="M229.04 193.41C215.727 193.402 202.845 198.133 192.701 206.755C182.557 215.377 175.812 227.328 173.675 240.469C171.537 253.61 174.146 267.082 181.034 278.475C187.922 289.868 198.641 298.438 211.27 302.65C214.07 303.17 215.1 301.44 215.1 299.96C215.1 298.48 215.05 294.2 215.03 289.52C199.43 292.91 196.14 282.91 196.14 282.91C193.59 276.43 189.92 274.7 189.92 274.7C184.83 271.22 190.3 271.3 190.3 271.3C195.93 271.69 198.89 277.07 198.89 277.07C203.89 285.64 212.01 283.17 215.21 281.73C215.46 278.889 216.72 276.232 218.76 274.24C206.31 272.82 193.22 268.01 193.22 246.53C193.15 240.974 195.22 235.603 199 231.53C198.42 230.12 196.5 224.41 199.54 216.69C199.54 216.69 204.25 215.19 214.96 222.44C224.15 219.92 233.85 219.92 243.04 222.44C253.74 215.19 258.44 216.69 258.44 216.69C261.49 224.41 259.57 230.12 258.99 231.53C262.767 235.604 264.832 240.975 264.76 246.53C264.76 268.06 251.64 272.8 239.16 274.19C241.16 275.93 242.96 279.34 242.96 284.57C242.96 292.07 242.9 298.11 242.9 299.96C242.9 301.45 243.9 303.2 246.75 302.65C259.375 298.439 270.089 289.875 276.978 278.488C283.867 267.101 286.48 253.635 284.35 240.499C282.221 227.362 275.487 215.411 265.353 206.784C255.22 198.157 242.348 193.416 229.04 193.41Z"
    fill="#ffffff" filter="url(#glow)" stroke="#ffffff" stroke-width="2">
    <animate attributeName="opacity" values="0.8;1;0.8" dur="3s" repeatCount="indefinite" />
  </path>

</svg>
